<svg id="visual" viewBox="0 0 960 540" width="960" height="540" xmlns="http://www.w3.org/2000/svg" xmlns:xlink="http://www.w3.org/1999/xlink" version="1.1"><path d="M0 334L22.8 325.3C45.7 316.7 91.3 299.3 137 301.3C182.7 303.3 228.3 324.7 274 319.5C319.7 314.3 365.3 282.7 411.2 272.8C457 263 503 275 548.8 286.3C594.7 297.7 640.3 308.3 686 300.8C731.7 293.3 777.3 267.7 823 266.3C868.7 265 914.3 288 937.2 299.5L960 311L960 541L937.2 541C914.3 541 868.7 541 823 541C777.3 541 731.7 541 686 541C640.3 541 594.7 541 548.8 541C503 541 457 541 411.2 541C365.3 541 319.7 541 274 541C228.3 541 182.7 541 137 541C91.3 541 45.7 541 22.8 541L0 541Z" fill="#1e2738"></path><path d="M0 304L22.8 317.7C45.7 331.3 91.3 358.7 137 373.3C182.7 388 228.3 390 274 377C319.7 364 365.3 336 411.2 333.3C457 330.7 503 353.3 548.8 356C594.7 358.7 640.3 341.3 686 327.7C731.7 314 777.3 304 823 312.5C868.7 321 914.3 348 937.2 361.5L960 375L960 541L937.2 541C914.3 541 868.7 541 823 541C777.3 541 731.7 541 686 541C640.3 541 594.7 541 548.8 541C503 541 457 541 411.2 541C365.3 541 319.7 541 274 541C228.3 541 182.7 541 137 541C91.3 541 45.7 541 22.8 541L0 541Z" fill="#242e40"></path><path d="M0 431L22.8 420.3C45.7 409.7 91.3 388.3 137 384.3C182.7 380.3 228.3 393.7 274 402.2C319.7 410.7 365.3 414.3 411.2 408C457 401.7 503 385.3 548.8 382.2C594.7 379 640.3 389 686 398C731.7 407 777.3 415 823 415.8C868.7 416.7 914.3 410.3 937.2 407.2L960 404L960 541L937.2 541C914.3 541 868.7 541 823 541C777.3 541 731.7 541 686 541C640.3 541 594.7 541 548.8 541C503 541 457 541 411.2 541C365.3 541 319.7 541 274 541C228.3 541 182.7 541 137 541C91.3 541 45.7 541 22.8 541L0 541Z" fill="#2a3548"></path><path d="M0 461L22.8 457.8C45.7 454.7 91.3 448.3 137 454.2C182.7 460 228.3 478 274 485.5C319.7 493 365.3 490 411.2 482C457 474 503 461 548.8 461C594.7 461 640.3 474 686 481C731.7 488 777.3 489 823 486.8C868.7 484.7 914.3 479.3 937.2 476.7L960 474L960 541L937.2 541C914.3 541 868.7 541 823 541C777.3 541 731.7 541 686 541C640.3 541 594.7 541 548.8 541C503 541 457 541 411.2 541C365.3 541 319.7 541 274 541C228.3 541 182.7 541 137 541C91.3 541 45.7 541 22.8 541L0 541Z" fill="#303c51"></path></svg>